# xmcd
#
# Track frame offsets:
#	180
#	14861
#	29773
#	49703
#	66254
#	87983
#	102054
#	120904
#	134669
#	150364
#	172026
#	190840
#
# Disc length: 2845 seconds
#
# Revision: 0
# Processed by: cddbd v1.5.1PL0 Copyright (c) Steve Scherf et al.
# Submitted via: MusicWizard 7.1.1b
#
DISCID=a20b1b0c
DTITLE=City Blossom - Clown Of Emotion
DYEAR=1994
DGENRE=Blues
TTITLE0=Promise And Lies
TTITLE1=Run Run Run
TTITLE2=It´s Okay To Be Human
TTITLE3=Watch The Beautiful Die
TTITLE4=It´s Been Good (Late On Sunday)
TTITLE5=To Be Alive
TTITLE6=Never Be Free
TTITLE7=Sight At First Love
TTITLE8=Walking On Eggs
TTITLE9=Time Of Regret
TTITLE10=Sympathy For Thr Devil
TTITLE11=Sweet Rain
EXTD=
EXTT0=
EXTT1=
EXTT2=
EXTT3=
EXTT4=
EXTT5=
EXTT6=
EXTT7=
EXTT8=
EXTT9=
EXTT10=
EXTT11=
PLAYORDER=
